<!--?xml version="1.0" encoding="utf-8"?-->
<!-- Generator: Adobe Illustrator 18.1.1, SVG Export Plug-In . SVG Version: 6.00 Build 0)  -->

<svg version="1.1" id="_x32_" xmlns="http://www.w3.org/2000/svg" xmlns:xlink="http://www.w3.org/1999/xlink" x="0px" y="0px" viewBox="0 0 512 512" style="width: 48px; height: 48px; opacity: 1;" xml:space="preserve">
<style type="text/css">
	.st0{fill:#4B4B4B;}
</style>
<g>
	<polygon class="st0" points="177.531,359.77 118.698,359.77 89.488,443.068 113.559,443.068 87.539,512 182.015,407.982 
		143.371,407.982 	" style="fill: rgb(213, 255, 0);"></polygon>
	<polygon class="st0" points="297.865,359.77 239.041,359.77 209.831,443.068 233.892,443.068 207.873,512 302.348,407.982 
		263.705,407.982 	" style="fill: rgb(213, 255, 0);"></polygon>
	<polygon class="st0" points="418.207,359.77 359.375,359.77 330.165,443.068 354.226,443.068 328.215,512 422.682,407.982 
		384.047,407.982 	" style="fill: rgb(213, 255, 0);"></polygon>
	<path class="st0" d="M410.535,138.393c-0.045,0-0.081,0-0.117,0c0.053-1.536,0.117-3.064,0.117-4.618
		C410.535,59.892,350.641,0,276.759,0c-69.21,0-126.146,52.561-133.065,119.947c-9.704-3.001-20.018-4.618-30.701-4.618
		c-57.323,0-103.792,46.47-103.792,103.793c0,57.322,46.469,103.792,103.792,103.792h297.542c50.952,0,92.265-41.303,92.265-92.265
		C502.799,179.696,461.487,138.393,410.535,138.393z" style="fill: rgb(213, 255, 0);"></path>
</g>
</svg>
